<svg width="22" height="22" viewBox="0 0 22 22" fill="none" xmlns="http://www.w3.org/2000/svg">
<path d="M2.72461 5.5H4.54128H19.0746" stroke="white" stroke-width="2" stroke-linecap="round" stroke-linejoin="round"/>
<path d="M7.26602 5.5V3.66667C7.26602 3.18044 7.45741 2.71412 7.79811 2.37031C8.1388 2.02649 8.60087 1.83334 9.08268 1.83334H12.716C13.1978 1.83334 13.6599 2.02649 14.0006 2.37031C14.3413 2.71412 14.5327 3.18044 14.5327 3.66667V5.5M17.2577 5.5V18.3333C17.2577 18.8196 17.0663 19.2859 16.7256 19.6297C16.3849 19.9735 15.9228 20.1667 15.441 20.1667H6.35768C5.87587 20.1667 5.4138 19.9735 5.0731 19.6297C4.73241 19.2859 4.54102 18.8196 4.54102 18.3333V5.5H17.2577Z" stroke="white" stroke-width="2" stroke-linecap="round" stroke-linejoin="round"/>
<path d="M9.08398 10.0833V15.5833" stroke="white" stroke-width="2" stroke-linecap="round" stroke-linejoin="round"/>
<path d="M12.7168 10.0833V15.5833" stroke="white" stroke-width="2" stroke-linecap="round" stroke-linejoin="round"/>
</svg>
