<svg width="61" height="41" viewBox="0 0 61 41" fill="none" xmlns="http://www.w3.org/2000/svg">
<ellipse cx="9.35565" cy="9.35608" rx="9.35565" ry="9.35608" transform="matrix(-0.759166 0.650897 0.650897 0.759166 31.251 0)" fill="#61A3FF"/>
<ellipse cx="9.35565" cy="9.35608" rx="9.35565" ry="9.35608" transform="matrix(-0.759166 0.650897 0.650897 0.759166 14.2051 14.6149)" fill="#61A3FF"/>
<rect width="22.9882" height="18.7122" transform="matrix(-0.759166 0.650897 0.650897 0.759166 24.3516 5.91553)" fill="#61A3FF"/>
<ellipse cx="7.21722" cy="7.21755" rx="7.21722" ry="7.21755" transform="matrix(-0.759166 0.650897 0.650897 0.759166 30.6133 3.36328)" fill="white"/>
<ellipse cx="7.21722" cy="7.21755" rx="7.21722" ry="7.21755" transform="matrix(-0.759166 0.650897 0.650897 0.759166 14.3789 17.2822)" fill="white"/>
<rect width="22.2355" height="14.4351" transform="matrix(-0.759166 0.650897 0.650897 0.759166 25.3369 7.88696)" fill="white"/>
<ellipse cx="30.3007" cy="13.1926" rx="9.3556" ry="9.35613" transform="rotate(40.6092 30.3007 13.1926)" fill="#0056D2"/>
<ellipse cx="47.3466" cy="27.8075" rx="9.3556" ry="9.35613" transform="rotate(40.6092 47.3466 27.8075)" fill="#0056D2"/>
<rect x="36.1875" y="5.91577" width="22.988" height="18.7123" transform="rotate(40.6092 36.1875 5.91577)" fill="#0056D2"/>
<ellipse cx="30.7069" cy="13.5405" rx="7.21718" ry="7.21759" transform="rotate(40.6092 30.7069 13.5405)" fill="white"/>
<ellipse cx="46.9413" cy="27.4595" rx="7.21718" ry="7.21759" transform="rotate(40.6092 46.9413 27.4595)" fill="white"/>
<rect x="35.2021" y="7.88721" width="21.9188" height="14.4352" transform="rotate(40.6092 35.2021 7.88721)" fill="white"/>
</svg>
